# xmcd CD database file
#
# Track frame offsets:
#	150
#	23330
#	45961
#	70181
#
# Disc length: 1190 seconds
#
# Revision: 0
# Processed by: cddbd v1.5.1PL0 Copyright (c) Steve Scherf et al.
# Submitted via: CDex 1.51
#
DISCID=2104a404
DTITLE=Mr.Children - 四次元/Four Dimensions
DYEAR=2005
DGENRE=Pop
TTITLE0=未来
TTITLE1=and I love you
TTITLE2=ランニングハイ
TTITLE3=ヨーイドン
EXTD=YEAR: 2005
EXTT0=
EXTT1=
EXTT2=
EXTT3=
PLAYORDER=
